<?xml version="1.0" encoding="UTF-8"?>
<svg width="149px" height="25px" viewBox="0 0 149 25" version="1.1" xmlns="http://www.w3.org/2000/svg" xmlns:xlink="http://www.w3.org/1999/xlink">
    <!-- Generator: Sketch 58 (84663) - https://sketch.com -->
    <title>Envixo_Logo_Inverse</title>
    <desc>Created with Sketch.</desc>
    <g id="Page-1" stroke="none" stroke-width="1" fill="none" fill-rule="evenodd">
        <g id="Envixo_Logo_Inverse" fill-rule="nonzero">
            <path d="M2.5,15.1617647 C3.23529412,20.3088235 6.34558824,22.7058824 11.8823529,22.6985294 C16.4558824,22.6985294 19.4705882,20.8235294 20.9264706,17.0661765 L23.3823529,17.0661765 C22.4656863,20.0318627 20.9044118,22.1151961 18.6985294,23.3161765 C16.5650675,24.4426397 14.1762503,24.9974127 11.7647059,24.9264706 C7.88235294,24.9264706 4.91666667,23.8063725 2.86764706,21.5661765 C0.955882353,19.4828431 0,16.5955882 0,12.9044118 C0,9.21323529 1.09558824,6.27205882 3.28676471,4.08088235 C5.48284314,1.8504902 8.39460784,0.735294118 12.0220588,0.735294118 C15.6495098,0.735294118 18.5539216,1.75245098 20.7352941,3.78676471 C22.9117647,5.82107843 24,8.55882353 24,12 L24,13.6544118 L6.35294118,13.6544118 L7.36764706,11.4485294 L21.3235294,11.4485294 C21.2904748,9.07434522 20.28913,6.81667122 18.5514706,5.19852941 C16.7379864,3.64882826 14.4054485,2.84242158 12.0220588,2.94117647 C9.60925967,2.84154884 7.2471649,3.65253471 5.40441176,5.21323529 C3.9555941,6.50565029 2.97349159,8.23983657 2.61029412,10.1470588 C2.30665459,11.796855 2.26447219,13.4841511 2.48529412,15.1470588 M49.3308824,24.4044118 L49.3308824,9.30147059 C49.4320396,7.48903592 48.7011174,5.72940835 47.3455882,4.52205882 C45.8138637,3.39900113 43.9407707,2.84045051 42.0441176,2.94117647 C39.7183597,2.81774305 37.4460967,3.66751079 35.7720588,5.28676471 C34.208368,6.9358097 33.3805402,9.148657 33.4779412,11.4191176 L33.4779412,24.4044118 L31.0588235,24.4044118 L31.0588235,1.25735294 L33.4705882,1.25735294 L33.4705882,4.41176471 C35.3039216,1.96078431 38.1446078,0.735294118 41.9926471,0.735294118 C44.4353866,0.625675336 46.8462673,1.32335788 48.8529412,2.72058824 C50.7769968,4.16606141 51.8593867,6.47130394 51.7426471,8.875 L51.7426471,24.4044118 L49.3308824,24.4044118 Z M71.2573529,24.4044118 L69.0514706,24.4044118 L57.9044118,1.30147059 L60.6985294,1.30147059 L70.1176471,21.3235294 L78.9411765,1.30147059 L81.5882353,1.30147059 L71.2573529,24.4044118 Z M87.5955882,24.4044118 L87.5955882,0.926470588 L90.0073529,0.926470588 L90.0073529,24.4044118 L87.5955882,24.4044118 Z M136.367647,24.9264706 C132.612745,24.9264706 129.637255,23.8063725 127.441176,21.5661765 C125.209349,19.2276419 124.0231,16.0828877 124.154412,12.8529412 C124.154412,9.16176471 125.281863,6.22058824 127.536765,4.02941176 C129.791667,1.83823529 132.767157,0.740196078 136.463235,0.735294118 C140.154412,0.735294118 143.112745,1.83088235 145.338235,4.02205882 C147.563725,6.21323529 148.676471,9.15441176 148.676471,12.8455882 C148.676471,16.5367647 147.54902,19.4779412 145.294118,21.6691176 C143.039216,23.8602941 140.063725,24.9460784 136.367647,24.9264706 L136.367647,24.9264706 Z M143.654412,5.68382353 C141.919118,3.85539216 139.504902,2.94117647 136.411765,2.94117647 C133.318627,2.94117647 130.919118,3.83333333 129.213235,5.61764706 C127.448529,7.40196078 126.566176,9.80882353 126.566176,12.8382353 C126.566176,15.8676471 127.458333,18.2573529 129.242647,20.0073529 C131.026961,21.7916667 133.416667,22.6838235 136.411765,22.6838235 C139.406863,22.6838235 141.796569,21.7916667 143.580882,20.0073529 C145.365196,18.2230392 146.257353,15.8333333 146.257353,12.8382353 C146.373429,10.2025159 145.437034,7.62875219 143.654412,5.68382353 L143.654412,5.68382353 Z" id="Shape" fill="#FFFFFF"></path>
            <path d="M98.4779412,24.4044118 L107.801471,14.1764706 L117.080882,24.4044118 L120.205882,24.4044118 C113.235294,16.7058824 106.264706,9.05147059 99.3308824,1.30147059 L96.3235294,1.30147059 L106.191176,12.4264706 L95.3529412,24.4044118 L98.4779412,24.4044118 Z" id="Path" fill="#43D3FF"></path>
            <polygon id="Path" fill="#00B3F2" points="111.602941 9.85294118 119.213235 1.30147059 116.088235 1.30147059 110.088235 8.16176471"></polygon>
        </g>
    </g>
</svg>